<svg width="32" height="32" xmlns="http://www.w3.org/2000/svg">
<g>
<rect stroke-width="0" height="5" width="5" y="12.9" x="0.2" stroke="#000" fill="#000000"/>
<rect stroke-width="0" height="5" width="5" y="19.2" x="6.8" stroke="#000" fill="#000000"/>
<rect stroke-width="0" height="5" width="5" y="12.9" x="13.1" stroke="#000" fill="#000000"/>
<rect stroke-width="0" height="5" width="5" y="6.5" x="19.5" stroke="#000" fill="#000000"/>
<rect stroke-width="0" height="5" width="5" y="19.2" x="19.5" stroke="#000" fill="#000000"/>
<rect stroke-width="0" height="5" width="5" y="12.9" x="25.8" stroke="#000" fill="#000000"/>
<rect stroke-width="0" height="5" width="5" y="25.5" x="0.2" stroke="#000" fill="#000000"/>
<rect stroke-width="0" height="5" width="5" y="25.5" x="13.1" stroke="#000" fill="#000000"/>
<rect stroke-width="0" height="5" width="5" y="25.5" x="25.8" stroke="#000" fill="#000000"/>
<rect stroke-width="0" height="5" width="5" y="25.5" x="6.8" stroke="#000" fill="#000000"/>
<rect stroke-width="0" height="5" width="5" y="0.2" x="19.5" stroke="#000" fill="#000000"/>
<rect stroke-width="0" height="5" width="5" y="12.9" x="19.5" stroke="#000" fill="#000000"/>
<rect stroke-width="0" height="5" width="5" y="25.5" x="19.5" stroke="#000" fill="#000000"/>
<rect stroke-width="0" height="5" width="5" y="6.5" x="13.1" stroke="#000" fill="#000000"/>
<rect stroke-width="0" height="5" width="5" y="6.5" x="25.8" stroke="#000" fill="#000000"/>
<rect stroke-width="0" height="5" width="5" y="19.2" x="25.8" stroke="#000" fill="#000000"/>
<rect stroke-width="0" height="5" width="5" y="19.2" x="13.1" stroke="#000" fill="#000000"/>
<rect stroke-width="0" height="5" width="5" y="19.2" x="0.2" stroke="#000" fill="#000000"/>
</g>
</svg>