<svg class="bi" width="16" height="16" viewBox="0 0 297 297" xml:space="preserve" xmlns="http://www.w3.org/2000/svg">
    <path d="M165 233H75c-3 0-6 2-6 6v41c0 3 3 6 6 6h90c3 0 6-3 6-6v-41c0-4-3-6-6-6zM291 231h-91c-3 0-6 3-6 6v41c0 3 3 6 6 6h91c3 0 6-3 6-6v-41c0-3-3-6-6-6zM75 137h87c4 0 7-2 7-5V91c0-3-3-5-7-5H75c-3 0-6 2-6 5v41c0 3 3 5 6 5zM289 85h-90c-3 0-6 3-6 6v40c0 3 3 6 6 6h90c4 0 7-3 7-6V91c0-3-3-6-7-6zM135 68h88c4 0 6-3 6-6V23c0-3-2-6-6-6h-88c-4 0-6 3-6 6v39c0 3 2 6 6 6zM138 163v42a6 6 0 0 0 6 6h85a6 6 0 0 0 6-6v-42a6 6 0 0 0-6-6h-85a6 6 0 0 0-6 6zM117 203v-41c0-3-3-6-7-6H13c-4 0-7 3-7 6v41c0 3 3 6 7 6h97c4 0 7-3 7-6z"/>
</svg>