<svg xmlns="http://www.w3.org/2000/svg" width="16" height="16" fill="currentColor" class="bi bi-square-dotted" viewBox="0 0 16 16">
    <path d="m2.5 0q-.25 0-.487.048l.194.98a1.5 1.5 0 01.293-.028h.458v-1zm2.292 0h-.917v1h.917zm1.833 0h-.917v1h.917zm1.833 0h-.916v1h.916zm1.834 0h-.917v1h.917zm1.833 0h-.917v1h.917zm1.375 0h-.458v1h.458q.151 0 .293.029l.194-.981a2.5 2.5 0 00-.487-.048m2.079 1.11a2.5 2.5 0 00-.69-.689l-.556.831q.248.167.415.415l.83-.556zm-14.469-.689a2.5 2.5 0 00-.689.69l.831.556c.11-.164.251-.305.415-.415zm14.89 2.079q0-.25-.048-.487l-.98.194q.027.141.028.293v.458h1zm-15.952-.487a2.5 2.5 0 00-.048.487v.458h1v-.458q0-.151.029-.293zm-.048 1.862v.917h1v-.917zm16 .917v-.917h-1v.917zm-16 .916v.917h1v-.917zm16 .917v-.917h-1v.917zm-16 .917v.916h1v-.916zm15 .916h1v-.916h-1zm-15 .917v.917h1v-.917zm16 .917v-.917h-1v.917zm-16 .916v.917h1v-.917zm16 .917v-.917h-1v.917zm-16 .917v.458q0 .25.048.487l.98-.194a1.5 1.5 0 01-.028-.293v-.458zm16 .458v-.458h-1v.458q0 .151-.029.293l.981.194q.048-.237.048-.487m-15.579 1.39c.183.272.417.506.69.689l.556-.831a1.5 1.5 0 01-.415-.415zm14.469.689c.272-.183.506-.417.689-.69l-.831-.556c-.11.164-.251.305-.415.415l.556.83zm-12.877.373q.237.048.487.048h.458v-1h-.458q-.151 0-.293-.029zm11.487.048q.25 0 .487-.048l-.194-.98a1.5 1.5 0 01-.293.028h-.458v1zm-9.625 0h.917v-1h-.917zm1.833 0h.917v-1h-.917zm1.834 0h.916v-1h-.916zm1.833 0h.917v-1h-.917zm1.833 0h.917v-1h-.917z"/>
</svg>